<svg width="18" height="18" viewBox="0 0 18 18" fill="none" xmlns="http://www.w3.org/2000/svg">
<g clip-path="url(#clip0_118_488)">
<path d="M7.45312 0.5625C7.05469 0.5625 6.72006 0.722041 6.50446 0.9646C6.28885 1.20716 6.1875 1.51953 6.1875 1.82812C6.1875 2.13672 6.28885 2.44909 6.50446 2.69165C6.72006 2.93421 7.05469 3.09375 7.45312 3.09375C7.85156 3.09375 8.18619 2.93421 8.40179 2.69165C8.6174 2.44909 8.71875 2.13672 8.71875 1.82812C8.71875 1.51953 8.6174 1.20716 8.40179 0.9646C8.18619 0.722041 7.85156 0.5625 7.45312 0.5625ZM7.45312 1.125C7.71094 1.125 7.8685 1.21155 7.98102 1.33813C8.09353 1.46472 8.15625 1.64453 8.15625 1.82812C8.15625 2.01172 8.09353 2.19153 7.98102 2.31812C7.8685 2.4447 7.71094 2.53125 7.45312 2.53125C7.19531 2.53125 7.03775 2.4447 6.92523 2.31812C6.81272 2.19153 6.75 2.01172 6.75 1.82812C6.75 1.64453 6.81272 1.46472 6.92523 1.33813C7.03775 1.21155 7.19531 1.125 7.45312 1.125ZM15.4688 3.93915C15.0363 3.93915 14.604 4.10353 14.2756 4.43188L9.70752 9H0.84375C0.76916 9.00001 0.697627 9.02964 0.644884 9.08238C0.592141 9.13513 0.562507 9.20666 0.5625 9.28125C0.5625 13.7879 4.34874 17.4375 9 17.4375C13.6513 17.4375 17.4375 13.7879 17.4375 9.28125C17.4375 9.20666 17.4079 9.13513 17.3551 9.08238C17.3024 9.02964 17.2308 9.00001 17.1562 9H14.48L16.6619 6.81812C17.3187 6.16162 17.3187 5.08838 16.6619 4.43188C16.3335 4.10353 15.9012 3.93915 15.4688 3.93915ZM4.64062 4.21875C4.24219 4.21875 3.90756 4.37829 3.69196 4.62085C3.47635 4.86341 3.375 5.17578 3.375 5.48438C3.375 5.79297 3.47635 6.10534 3.69196 6.3479C3.90756 6.59046 4.24219 6.75 4.64062 6.75C5.03906 6.75 5.37369 6.59046 5.58929 6.3479C5.8049 6.10534 5.90625 5.79297 5.90625 5.48438C5.90625 5.17578 5.8049 4.86341 5.58929 4.62085C5.37369 4.37829 5.03906 4.21875 4.64062 4.21875ZM15.4688 4.49835C15.756 4.49835 16.0432 4.60866 16.2642 4.82959C16.7059 5.2711 16.7059 5.9789 16.2642 6.42041L13.6846 9H10.5029L14.6733 4.82959C14.8943 4.60866 15.1815 4.49835 15.4688 4.49835ZM4.64062 4.78125C4.89844 4.78125 5.056 4.8678 5.16852 4.99438C5.28103 5.12097 5.34375 5.30078 5.34375 5.48438C5.34375 5.66797 5.28103 5.84778 5.16852 5.97437C5.056 6.10095 4.89844 6.1875 4.64062 6.1875C4.38281 6.1875 4.22525 6.10095 4.11273 5.97437C4.00022 5.84778 3.9375 5.66797 3.9375 5.48438C3.9375 5.30078 4.00022 5.12097 4.11273 4.99438C4.22525 4.8678 4.38281 4.78125 4.64062 4.78125ZM9 5.90625C8.74219 5.90625 8.51303 6.01306 8.36774 6.17651C8.22244 6.33997 8.15625 6.54688 8.15625 6.75C8.15625 6.95312 8.22244 7.16003 8.36774 7.32349C8.51303 7.48694 8.74219 7.59375 9 7.59375C9.25781 7.59375 9.48697 7.48694 9.63226 7.32349C9.77756 7.16003 9.84375 6.95312 9.84375 6.75C9.84375 6.54688 9.77756 6.33997 9.63226 6.17651C9.48697 6.01306 9.25781 5.90625 9 5.90625ZM9 6.46875C9.11719 6.46875 9.16928 6.50257 9.21149 6.55005C9.25369 6.59753 9.28125 6.67187 9.28125 6.75C9.28125 6.82813 9.25369 6.90247 9.21149 6.94995C9.16928 6.99743 9.11719 7.03125 9 7.03125C8.88281 7.03125 8.83072 6.99743 8.78851 6.94995C8.74631 6.90247 8.71875 6.82813 8.71875 6.75C8.71875 6.67187 8.74631 6.59753 8.78851 6.55005C8.83072 6.50257 8.88281 6.46875 9 6.46875ZM1.15411 9.5625H16.8459C16.6893 13.6212 13.2576 16.875 9 16.875C4.74239 16.875 1.31066 13.6212 1.15411 9.5625ZM1.96436 10.1212C1.88986 10.1223 1.81887 10.153 1.76696 10.2064C1.71506 10.2599 1.68648 10.3318 1.6875 10.4062V10.9688C1.68697 11.006 1.69386 11.043 1.70776 11.0776C1.72165 11.1122 1.74229 11.1437 1.76845 11.1702C1.79462 11.1968 1.82581 11.2178 1.86019 11.2322C1.89458 11.2466 1.93148 11.254 1.96875 11.254C2.00602 11.254 2.04292 11.2466 2.07731 11.2322C2.11169 11.2178 2.14288 11.1968 2.16905 11.1702C2.19521 11.1437 2.21585 11.1122 2.22974 11.0776C2.24364 11.043 2.25053 11.006 2.25 10.9688V10.4062C2.25052 10.3686 2.24347 10.3313 2.2293 10.2964C2.21512 10.2616 2.19409 10.2299 2.16745 10.2033C2.14082 10.1767 2.10912 10.1558 2.07423 10.1416C2.03935 10.1275 2.00198 10.1206 1.96436 10.1212ZM3.37061 10.1212C3.29611 10.1223 3.22512 10.153 3.17321 10.2064C3.12131 10.2599 3.09273 10.3318 3.09375 10.4062V10.9688C3.09322 11.006 3.10011 11.043 3.11401 11.0776C3.1279 11.1122 3.14854 11.1437 3.1747 11.1702C3.20087 11.1968 3.23206 11.2178 3.26644 11.2322C3.30083 11.2466 3.33773 11.254 3.375 11.254C3.41227 11.254 3.44917 11.2466 3.48356 11.2322C3.51794 11.2178 3.54913 11.1968 3.5753 11.1702C3.60146 11.1437 3.6221 11.1122 3.63599 11.0776C3.64989 11.043 3.65678 11.006 3.65625 10.9688V10.4062C3.65677 10.3686 3.64972 10.3313 3.63555 10.2964C3.62137 10.2616 3.60034 10.2299 3.5737 10.2033C3.54707 10.1767 3.51537 10.1558 3.48048 10.1416C3.4456 10.1275 3.40823 10.1206 3.37061 10.1212ZM4.77686 10.1212C4.70236 10.1223 4.63137 10.153 4.57946 10.2064C4.52756 10.2599 4.49898 10.3318 4.5 10.4062V10.9688C4.49947 11.006 4.50636 11.043 4.52026 11.0776C4.53415 11.1122 4.55479 11.1437 4.58095 11.1702C4.60712 11.1968 4.63831 11.2178 4.67269 11.2322C4.70708 11.2466 4.74398 11.254 4.78125 11.254C4.81852 11.254 4.85542 11.2466 4.88981 11.2322C4.92419 11.2178 4.95538 11.1968 4.98155 11.1702C5.00771 11.1437 5.02835 11.1122 5.04224 11.0776C5.05614 11.043 5.06303 11.006 5.0625 10.9688V10.4062C5.06302 10.3686 5.05597 10.3313 5.0418 10.2964C5.02762 10.2616 5.00659 10.2299 4.97995 10.2033C4.95331 10.1767 4.92162 10.1558 4.88673 10.1416C4.85185 10.1275 4.81448 10.1206 4.77686 10.1212ZM6.18311 10.1212C6.10861 10.1223 6.03762 10.153 5.98571 10.2064C5.93381 10.2599 5.90523 10.3318 5.90625 10.4062V10.9688C5.90572 11.006 5.91261 11.043 5.92651 11.0776C5.9404 11.1122 5.96104 11.1437 5.9872 11.1702C6.01337 11.1968 6.04456 11.2178 6.07894 11.2322C6.11333 11.2466 6.15023 11.254 6.1875 11.254C6.22477 11.254 6.26167 11.2466 6.29606 11.2322C6.33044 11.2178 6.36163 11.1968 6.3878 11.1702C6.41396 11.1437 6.4346 11.1122 6.44849 11.0776C6.46239 11.043 6.46928 11.006 6.46875 10.9688V10.4062C6.46927 10.3686 6.46222 10.3313 6.44805 10.2964C6.43387 10.2616 6.41284 10.2299 6.3862 10.2033C6.35956 10.1767 6.32787 10.1558 6.29298 10.1416C6.2581 10.1275 6.22073 10.1206 6.18311 10.1212ZM7.58936 10.1212C7.51486 10.1223 7.44387 10.153 7.39196 10.2064C7.34006 10.2599 7.31148 10.3318 7.3125 10.4062V10.9688C7.31197 11.006 7.31886 11.043 7.33276 11.0776C7.34665 11.1122 7.36729 11.1437 7.39345 11.1702C7.41962 11.1968 7.45081 11.2178 7.48519 11.2322C7.51958 11.2466 7.55648 11.254 7.59375 11.254C7.63102 11.254 7.66792 11.2466 7.70231 11.2322C7.73669 11.2178 7.76788 11.1968 7.79405 11.1702C7.82021 11.1437 7.84085 11.1122 7.85474 11.0776C7.86864 11.043 7.87553 11.006 7.875 10.9688V10.4062C7.87552 10.3686 7.86847 10.3313 7.8543 10.2964C7.84012 10.2616 7.81909 10.2299 7.79245 10.2033C7.76581 10.1767 7.73412 10.1558 7.69923 10.1416C7.66435 10.1275 7.62698 10.1206 7.58936 10.1212ZM8.99561 10.1212C8.92111 10.1223 8.85012 10.153 8.79821 10.2064C8.74631 10.2599 8.71773 10.3318 8.71875 10.4062V10.9688C8.71822 11.006 8.72511 11.043 8.73901 11.0776C8.7529 11.1122 8.77354 11.1437 8.7997 11.1702C8.82587 11.1968 8.85706 11.2178 8.89144 11.2322C8.92583 11.2466 8.96273 11.254 9 11.254C9.03727 11.254 9.07417 11.2466 9.10856 11.2322C9.14294 11.2178 9.17413 11.1968 9.20029 11.1702C9.22646 11.1437 9.2471 11.1122 9.26099 11.0776C9.27489 11.043 9.28178 11.006 9.28125 10.9688V10.4062C9.28177 10.3686 9.27472 10.3313 9.26055 10.2964C9.24637 10.2616 9.22534 10.2299 9.1987 10.2033C9.17206 10.1767 9.14037 10.1558 9.10548 10.1416C9.0706 10.1275 9.03323 10.1206 8.99561 10.1212ZM10.4019 10.1212C10.3274 10.1223 10.2564 10.153 10.2045 10.2064C10.1526 10.2599 10.124 10.3318 10.125 10.4062V10.9688C10.1245 11.006 10.1314 11.043 10.1453 11.0776C10.1592 11.1122 10.1798 11.1437 10.206 11.1702C10.2321 11.1968 10.2633 11.2178 10.2977 11.2322C10.3321 11.2466 10.369 11.254 10.4062 11.254C10.4435 11.254 10.4804 11.2466 10.5148 11.2322C10.5492 11.2178 10.5804 11.1968 10.6065 11.1702C10.6327 11.1437 10.6533 11.1122 10.6672 11.0776C10.6811 11.043 10.688 11.006 10.6875 10.9688V10.4062C10.688 10.3686 10.681 10.3313 10.6668 10.2964C10.6526 10.2616 10.6316 10.2299 10.605 10.2033C10.5783 10.1767 10.5466 10.1558 10.5117 10.1416C10.4768 10.1275 10.4395 10.1206 10.4019 10.1212ZM11.8081 10.1212C11.7336 10.1223 11.6626 10.153 11.6107 10.2064C11.5588 10.2599 11.5302 10.3318 11.5312 10.4062V10.9688C11.5307 11.006 11.5376 11.043 11.5515 11.0776C11.5654 11.1122 11.586 11.1437 11.6122 11.1702C11.6384 11.1968 11.6696 11.2178 11.7039 11.2322C11.7383 11.2466 11.7752 11.254 11.8125 11.254C11.8498 11.254 11.8867 11.2466 11.9211 11.2322C11.9554 11.2178 11.9866 11.1968 12.0128 11.1702C12.039 11.1437 12.0596 11.1122 12.0735 11.0776C12.0874 11.043 12.0943 11.006 12.0938 10.9688V10.4062C12.0943 10.3686 12.0872 10.3313 12.073 10.2964C12.0589 10.2616 12.0378 10.2299 12.0112 10.2033C11.9846 10.1767 11.9529 10.1558 11.918 10.1416C11.8831 10.1275 11.8457 10.1206 11.8081 10.1212ZM13.2144 10.1212C13.1399 10.1223 13.0689 10.153 13.017 10.2064C12.9651 10.2599 12.9365 10.3318 12.9375 10.4062V10.9688C12.937 11.006 12.9439 11.043 12.9578 11.0776C12.9717 11.1122 12.9923 11.1437 13.0185 11.1702C13.0446 11.1968 13.0758 11.2178 13.1102 11.2322C13.1446 11.2466 13.1815 11.254 13.2188 11.254C13.256 11.254 13.2929 11.2466 13.3273 11.2322C13.3617 11.2178 13.3929 11.1968 13.419 11.1702C13.4452 11.1437 13.4658 11.1122 13.4797 11.0776C13.4936 11.043 13.5005 11.006 13.5 10.9688V10.4062C13.5005 10.3686 13.4935 10.3313 13.4793 10.2964C13.4651 10.2616 13.4441 10.2299 13.4175 10.2033C13.3908 10.1767 13.3591 10.1558 13.3242 10.1416C13.2893 10.1275 13.252 10.1206 13.2144 10.1212ZM14.6206 10.1212C14.5461 10.1223 14.4751 10.153 14.4232 10.2064C14.3713 10.2599 14.3427 10.3318 14.3438 10.4062V10.9688C14.3432 11.006 14.3501 11.043 14.364 11.0776C14.3779 11.1122 14.3985 11.1437 14.4247 11.1702C14.4509 11.1968 14.4821 11.2178 14.5164 11.2322C14.5508 11.2466 14.5877 11.254 14.625 11.254C14.6623 11.254 14.6992 11.2466 14.7336 11.2322C14.7679 11.2178 14.7991 11.1968 14.8253 11.1702C14.8515 11.1437 14.8721 11.1122 14.886 11.0776C14.8999 11.043 14.9068 11.006 14.9062 10.9688V10.4062C14.9068 10.3686 14.8997 10.3313 14.8855 10.2964C14.8714 10.2616 14.8503 10.2299 14.8237 10.2033C14.7971 10.1767 14.7654 10.1558 14.7305 10.1416C14.6956 10.1275 14.6582 10.1206 14.6206 10.1212ZM16.0269 10.1212C15.9524 10.1223 15.8814 10.153 15.8295 10.2064C15.7776 10.2599 15.749 10.3318 15.75 10.4062V10.9688C15.7495 11.006 15.7564 11.043 15.7703 11.0776C15.7842 11.1122 15.8048 11.1437 15.831 11.1702C15.8571 11.1968 15.8883 11.2178 15.9227 11.2322C15.9571 11.2466 15.994 11.254 16.0312 11.254C16.0685 11.254 16.1054 11.2466 16.1398 11.2322C16.1742 11.2178 16.2054 11.1968 16.2315 11.1702C16.2577 11.1437 16.2783 11.1122 16.2922 11.0776C16.3061 11.043 16.313 11.006 16.3125 10.9688V10.4062C16.313 10.3686 16.306 10.3313 16.2918 10.2964C16.2776 10.2616 16.2566 10.2299 16.23 10.2033C16.2033 10.1767 16.1716 10.1558 16.1367 10.1416C16.1018 10.1275 16.0645 10.1206 16.0269 10.1212Z" fill="white"/>
</g>
<defs>
<clipPath id="clip0_118_488">
<rect width="18" height="18" fill="white"/>
</clipPath>
</defs>
</svg>
