<svg width="20" height="20" viewBox="0 0 20 20" fill="none" xmlns="http://www.w3.org/2000/svg">
<path d="M9.99984 1.33337C8.74347 1.33337 7.66477 2.04635 7.09749 3.08077C6.66751 2.83863 6.19507 2.66671 5.6665 2.66671C4.01755 2.66671 2.6665 4.01775 2.6665 5.66671C2.6665 6.95858 3.51504 8.01706 4.6665 8.43494V11.3334C4.66678 11.4024 4.67776 11.4709 4.69906 11.5365C3.89171 12.3292 3.33317 13.5189 3.33317 15.3334V16.5717C3.33317 17.413 4.01461 18.0951 4.85661 18.0951H9.33317C9.33317 18.0951 6.6665 17.112 6.6665 14.4454C6.6665 11.8806 8.40154 12.2327 9.99853 12H13.5037C13.782 12.5502 13.9998 13.2387 13.9998 14.0951V14.8568C13.9998 17.1428 12.1899 17.2383 12.1899 17.2383H15.1431C15.9844 17.2383 16.6678 16.5556 16.6678 15.7136V13.7774C16.6673 12.3406 16.1067 11.4739 15.3332 10.9493V8.99613C16.4966 8.47674 17.3332 7.35261 17.3332 6.00004C17.3332 4.16703 15.8328 2.66671 13.9998 2.66671C13.5384 2.66671 13.1512 2.87877 12.7498 3.04952C12.1705 2.07234 11.2156 1.33337 9.99984 1.33337ZM9.99984 2.66671C10.8772 2.66671 11.6036 3.22868 11.8774 4.01046C11.9112 4.10675 11.9665 4.19402 12.0393 4.26554C12.112 4.33707 12.2002 4.39094 12.2971 4.42301C12.3939 4.45509 12.4969 4.46451 12.5979 4.45055C12.699 4.43659 12.7955 4.39962 12.88 4.34249C13.2002 4.12602 13.582 4.00004 13.9998 4.00004C15.1122 4.00004 15.9998 4.88772 15.9998 6.00004C15.9998 6.93633 15.3614 7.70314 14.4985 7.92712C14.3556 7.96434 14.2291 8.04796 14.1389 8.16484C14.0486 8.28173 13.9997 8.42528 13.9998 8.57296V10.6667H5.99984V8.66671H7.33317C7.42151 8.66796 7.50922 8.65164 7.5912 8.61869C7.67318 8.58575 7.74779 8.53684 7.8107 8.47481C7.87362 8.41278 7.92358 8.33887 7.95767 8.25737C7.99177 8.17586 8.00933 8.08839 8.00933 8.00004C8.00933 7.91169 7.99177 7.82422 7.95767 7.74272C7.92358 7.66121 7.87362 7.5873 7.8107 7.52527C7.74779 7.46324 7.67318 7.41433 7.5912 7.38139C7.50922 7.34845 7.42151 7.33212 7.33317 7.33337H5.5376C5.50194 7.32163 5.46535 7.31292 5.42822 7.30733C4.61786 7.19013 3.99984 6.51195 3.99984 5.66671C3.99984 4.73833 4.73813 4.00004 5.6665 4.00004C6.15855 4.00004 6.58904 4.21298 6.89827 4.55603C6.98056 4.64726 7.08645 4.71399 7.20426 4.74883C7.32208 4.78368 7.44723 4.7853 7.5659 4.75351C7.68458 4.72172 7.79216 4.65776 7.87677 4.56868C7.96139 4.47961 8.01975 4.36889 8.04541 4.24874C8.23772 3.34564 9.0323 2.66671 9.99984 2.66671Z" fill="white"/>
</svg>
