<svg width="16" height="16" viewBox="0 0 16 16" fill="none" xmlns="http://www.w3.org/2000/svg">
<path d="M14.85 12.75H1.15C0.5 12.75 0 12.25 0 11.6V3.15C0 2.5 0.5 2 1.15 2H14.85C15.5 2 16 2.5 16 3.15V11.6C16 12.2 15.5 12.75 14.85 12.75ZM1.15 2.75C0.95 2.75 0.75 2.95 0.75 3.15V11.6C0.75 11.8 0.95 12 1.15 12H14.85C15.05 12 15.25 11.8 15.25 11.6V3.15C15.25 2.95 15.05 2.75 14.85 2.75H1.15Z" fill="white"/>
<path d="M14.8498 12.75H10.9498C10.7498 12.75 10.5498 12.6 10.5498 12.35V2.34995C10.5498 2.14995 10.6998 1.94995 10.9498 1.94995H14.8498C15.4998 1.99995 15.9998 2.49995 15.9998 3.14995V11.6C15.9998 12.2 15.4998 12.75 14.8498 12.75ZM11.3498 12H14.8498C15.0498 12 15.2498 11.8 15.2498 11.6V3.14995C15.2498 2.94995 15.0498 2.74995 14.8498 2.74995H11.3498V12Z" fill="white"/>
<path d="M14.15 10.2H12.4C12.2 10.2 12 10.05 12 9.80002C12 9.55002 12.15 9.40002 12.4 9.40002H14.15C14.35 9.40002 14.55 9.55002 14.55 9.80002C14.55 10.05 14.4 10.2 14.15 10.2Z" fill="white"/>
<path d="M14.15 6.99995H12.4C12.2 6.99995 12 6.84995 12 6.59995C12 6.34995 12.15 6.19995 12.4 6.19995H14.15C14.35 6.19995 14.55 6.34995 14.55 6.59995C14.55 6.84995 14.4 6.99995 14.15 6.99995Z" fill="white"/>
<path d="M14.15 11.35H12.4C12.2 11.35 12 11.2 12 10.95C12 10.7 12.15 10.55 12.4 10.55H14.15C14.35 10.55 14.55 10.7 14.55 10.95C14.55 11.2 14.4 11.35 14.15 11.35Z" fill="white"/>
<path d="M13.2998 5.84998C12.5998 5.84998 12.0498 5.29998 12.0498 4.59998C12.0498 3.89998 12.5998 3.34998 13.2998 3.34998C13.9998 3.34998 14.5498 3.89998 14.5498 4.59998C14.5498 5.29998 13.9998 5.84998 13.2998 5.84998ZM13.2998 4.09998C13.0498 4.09998 12.7998 4.29998 12.7998 4.59998C12.7998 4.89998 12.9998 5.09998 13.2998 5.09998C13.5998 5.09998 13.7998 4.89998 13.7998 4.59998C13.7998 4.29998 13.5498 4.09998 13.2998 4.09998Z" fill="white"/>
<path d="M4.45 14H2.4C2.15 14 2 13.85 2 13.65V12.4C2 12.15 2.15 12 2.4 12H4.5C4.7 12 4.9 12.15 4.9 12.4V13.65C4.85 13.85 4.65 14 4.45 14ZM2.75 13.25H4.1V12.75H2.75V13.25Z" fill="white"/>
<path d="M13.6499 14H11.5499C11.3499 14 11.1499 13.85 11.1499 13.6V12.35C11.1499 12.15 11.2999 11.95 11.5499 11.95H13.6499C13.8499 11.95 14.0499 12.1 14.0499 12.35V13.6C13.9999 13.85 13.8499 14 13.6499 14ZM11.8999 13.25H13.2499V12.75H11.8999V13.25Z" fill="white"/>
<path d="M3.2502 8.55002C3.1502 8.55002 3.0502 8.50002 3.0002 8.45002C2.8502 8.30002 2.8502 8.05002 3.0002 7.90002L6.2002 4.70002C6.3502 4.55002 6.6002 4.55002 6.7502 4.70002C6.9002 4.85002 6.9002 5.10002 6.7502 5.25002L3.5002 8.45002C3.4502 8.50002 3.3502 8.55002 3.2502 8.55002Z" fill="white"/>
<path d="M4.8498 10.15C4.7498 10.15 4.6498 10.1 4.5998 10.05C4.4498 9.9 4.4498 9.65 4.5998 9.5L7.7998 6.3C7.9498 6.15 8.19981 6.15 8.34981 6.3C8.49981 6.45 8.49981 6.7 8.34981 6.85L5.1498 10.05C5.0498 10.1 4.9498 10.15 4.8498 10.15Z" fill="white"/>
</svg>
