<svg width="20" height="20" viewBox="0 0 20 20" fill="none" xmlns="http://www.w3.org/2000/svg">
<path fill-rule="evenodd" clip-rule="evenodd" d="M7.034 2.24001C6.844 2.24501 6.659 2.25001 6.5 2.25001C6.086 2.25001 5.75 2.58601 5.75 3.00001C5.75 4.14601 5.907 5.03901 6.225 5.70701C5.579 5.81901 5.029 6.03701 4.569 6.36001C3.334 7.22701 3 8.66301 3 10C3 11.386 3.478 13.14 4.29 14.53C5.072 15.866 6.345 17.148 8.036 17C8.734 16.997 9.493 16.91 10 16.838C10.507 16.909 11.266 16.997 11.964 17C13.655 17.148 14.928 15.866 15.71 14.53C16.522 13.14 17 11.386 17 10C17 8.66301 16.666 7.22701 15.43 6.36001C14.556 5.74701 13.354 5.50801 11.784 5.66601L12.857 4.19101C13.1 3.85601 13.027 3.38701 12.691 3.14301C12.356 2.90001 11.887 2.97301 11.644 3.30901L10.618 4.71901C10.436 3.70901 10.055 3.00901 9.386 2.60701C8.911 2.32201 8.383 2.25201 7.918 2.23501C7.658 2.22501 7.338 2.23201 7.034 2.24001ZM8.217 5.66601C8.463 5.69101 8.717 5.72601 8.982 5.77001C9.062 5.77001 9.145 5.77001 9.23 5.76801C9.146 4.38401 8.823 4.01801 8.614 3.89301C8.464 3.80301 8.242 3.74801 7.863 3.73301C7.663 3.72601 7.479 3.73001 7.277 3.73501C7.384 5.05401 7.777 5.44501 8.047 5.59201C8.099 5.62001 8.156 5.64501 8.217 5.66601ZM5.431 7.58801C5.898 7.26001 6.671 7.03801 7.93 7.14501C8.228 7.22501 8.523 7.25501 8.79 7.26501L8.839 7.26701C9.142 7.32101 9.469 7.39001 9.819 7.47701C9.938 7.50701 10.062 7.50701 10.182 7.47701C12.616 6.86901 13.903 7.12101 14.569 7.58801C15.209 8.03801 15.5 8.85201 15.5 10C15.5 11.1 15.103 12.595 14.415 13.772C13.703 14.992 12.865 15.582 12.075 15.504C12.05 15.501 12.025 15.5 12 15.5C11.351 15.5 10.599 15.41 10.108 15.338C10.036 15.328 9.963 15.328 9.892 15.338C9.401 15.41 8.649 15.5 8 15.5C7.975 15.5 7.95 15.501 7.925 15.504C7.135 15.583 6.297 14.991 5.585 13.772C4.897 12.595 4.5 11.1 4.5 10C4.5 8.85201 4.79 8.03801 5.43 7.58801H5.431Z" fill="white"/>
</svg>
