<svg width="22" height="22" viewBox="0 0 22 22" fill="none" xmlns="http://www.w3.org/2000/svg">
<path d="M7.0329 3.51311C6.79056 3.51826 6.59634 3.71764 6.59977 3.95998C6.59977 6.06201 5.70087 6.80451 4.7779 7.62951C3.94602 8.37201 3.07977 9.21592 3.07977 11C3.07806 11.1598 3.16056 11.3076 3.29806 11.3867C3.43556 11.4675 3.60399 11.4675 3.74149 11.3867C3.87899 11.3076 3.96149 11.1598 3.95977 11C3.95977 9.4703 4.53212 9.02858 5.36399 8.28436C6.28696 7.46108 7.47977 6.3353 7.47977 3.95998C7.48149 3.84139 7.43509 3.72623 7.35087 3.64201C7.26665 3.5578 7.15149 3.51139 7.0329 3.51311ZM9.67978 5.27998C9.43743 5.27998 9.23978 5.47764 9.23978 5.71998C9.23978 7.00561 8.69321 7.49545 8.05899 8.06264C7.37837 8.6728 6.60665 9.36373 6.60665 11C6.60665 11.2423 6.80431 11.44 7.04665 11.44C7.28899 11.44 7.48665 11.244 7.48665 11C7.48665 9.75733 8.02462 9.27608 8.64681 8.71748C9.33774 8.09873 10.1198 7.3992 10.1198 5.71998C10.1198 5.47764 9.92212 5.27998 9.67978 5.27998ZM11.8798 7.03998C11.6357 7.03998 11.4398 7.23764 11.4398 7.47998C11.4398 8.2792 11.1115 8.57311 10.6956 8.94264C10.2418 9.34655 9.67634 9.85014 9.67634 11C9.67634 11.2423 9.87399 11.44 10.1163 11.44C10.3587 11.44 10.5563 11.2423 10.5563 11C10.5563 10.2437 10.8606 9.97389 11.2817 9.5992C11.744 9.18842 12.3198 8.67451 12.3198 7.47998C12.3198 7.23764 12.1238 7.03998 11.8798 7.03998ZM20.171 11.4125C19.1501 11.4005 16.8401 11.562 14.0471 12.937L14.0643 12.8769C14.1004 12.7445 14.0729 12.6019 13.9904 12.4936C13.9062 12.3836 13.7773 12.32 13.6398 12.32H1.16852C1.03102 12.32 0.9004 12.3836 0.8179 12.4936C0.7354 12.6019 0.706181 12.7445 0.742275 12.8769L1.62056 16.0944C1.93337 17.2408 2.98009 18.04 4.16774 18.04H10.6406C11.7612 18.04 12.7477 17.3233 13.119 16.28H13.6673C14.4424 16.28 15.2142 16.0119 15.7951 15.4636C16.2781 15.0081 17.2543 14.3842 19.1827 14.1625C20.2862 14.0353 21.1198 13.0883 21.1198 11.9797V11.88C21.1198 11.66 20.9565 11.4744 20.7399 11.4451C20.7399 11.4451 20.5371 11.4176 20.171 11.4125ZM19.7929 12.3148C19.9218 12.32 20.0267 12.3251 20.1074 12.332C19.9579 12.8201 19.6107 13.2275 19.0831 13.2894C16.9999 13.5283 15.8192 14.233 15.1918 14.8242C14.7913 15.2006 14.2379 15.4 13.6673 15.4H13.3768L13.736 14.0851L13.8374 14.0336C13.8409 14.0319 13.846 14.0284 13.8512 14.0267C16.7954 12.4214 18.8888 12.2908 19.7929 12.3148ZM1.74259 13.2H13.064L12.9437 13.6417C12.942 13.6486 12.9385 13.6555 12.9368 13.6623L12.3748 15.7231C12.3748 15.7248 12.3748 15.7248 12.3748 15.7265L12.3387 15.8623C12.129 16.6306 11.4363 17.16 10.6406 17.16H4.16774C3.37196 17.16 2.67931 16.6306 2.46962 15.8623L1.74259 13.2Z" fill="white"/>
</svg>
