<svg width="18" height="18" viewBox="0 0 18 18" fill="none" xmlns="http://www.w3.org/2000/svg">
<g clip-path="url(#clip0_118_482)">
<path d="M6 0C6 1.375 5.7041 1.91455 5.3291 2.66455C4.9541 3.41455 4.5 4.375 4.5 6H6C6 4.625 6.2959 4.08545 6.6709 3.33545C7.0459 2.58545 7.5 1.625 7.5 0H6ZM9.75 0C9.75 1.375 9.47733 1.77829 9.11133 2.37305C8.74533 2.9678 8.25 3.79464 8.25 5.25H9.75C9.75 4.08036 10.0047 3.7822 10.3887 3.1582C10.7727 2.53421 11.25 1.625 11.25 0H9.75ZM13.5 0C13.5 1.375 13.2041 1.91455 12.8291 2.66455C12.4541 3.41455 12 4.375 12 6H13.5C13.5 4.625 13.7959 4.08545 14.1709 3.33545C14.5459 2.58545 15 1.625 15 0H13.5ZM9.375 7.5C8.64926 7.5 8.04516 7.85545 7.57031 8.33496C7.42071 8.30664 7.28652 8.25 7.125 8.25C6.11444 8.25 5.3615 8.91097 4.9248 9.75586C4.90713 9.75547 4.89288 9.75 4.875 9.75C3.43411 9.75 2.25 10.9341 2.25 12.375C2.25 12.5163 2.35523 12.6147 2.37744 12.75H0.287109L2.53711 17.25H15.4629L15.6709 16.8354L17.7129 12.75H16.3682C16.3921 12.6131 16.5 12.5196 16.5 12.375C16.5 10.9341 15.3159 9.75 13.875 9.75C13.8571 9.75 13.8429 9.75548 13.8252 9.75586C13.3885 8.91098 12.6356 8.25 11.625 8.25C11.4635 8.25 11.3293 8.30664 11.1797 8.33496C10.7048 7.85545 10.1007 7.5 9.375 7.5ZM9.375 9C9.78006 9 10.121 9.2091 10.3228 9.52881L10.6509 10.0488L11.2251 9.8291C11.3607 9.77719 11.4919 9.75 11.625 9.75C12.1859 9.75 12.6348 10.1498 12.728 10.6772L12.8643 11.4492L13.6289 11.2793C13.7183 11.2595 13.7989 11.25 13.875 11.25C14.5056 11.25 15 11.7444 15 12.375C15 12.5134 14.9142 12.6272 14.8623 12.75H3.87891C3.82999 12.6269 3.75 12.5168 3.75 12.375C3.75 11.7444 4.24439 11.25 4.875 11.25C4.95108 11.25 5.03168 11.2595 5.12109 11.2793L5.88574 11.4492L6.02197 10.6772C6.11522 10.1498 6.56406 9.75 7.125 9.75C7.25808 9.75 7.38926 9.77719 7.5249 9.8291L8.09912 10.0488L8.42725 9.52881C8.629 9.2091 8.96994 9 9.375 9ZM2.71289 14.25H3.01465H15.2871L14.5371 15.75H3.46289L2.71289 14.25Z" fill="white"/>
</g>
<defs>
<clipPath id="clip0_118_482">
<rect width="18" height="18" fill="white"/>
</clipPath>
</defs>
</svg>
