<svg width="16" height="16" viewBox="0 0 16 16" fill="none" xmlns="http://www.w3.org/2000/svg">
<g clip-path="url(#clip0_118_412)">
<path d="M9.28 0C8.93 0 8.64 0.29 8.64 0.64V1.6C8.64 1.9125 8.87125 2.1775 9.17 2.23C9.03875 2.4425 8.9075 2.6825 8.78 2.97C8.515 3.5675 8.26 4.2975 8.06 4.99L7.62 4.74C7.55375 4.70125 7.47625 4.68625 7.4 4.7C7.33875 4.71375 7.28375 4.745 7.24 4.79L6.81 5.2C6.2375 4.70875 5.4925 4.41 4.68 4.41C2.93375 4.41 1.49625 5.785 1.41 7.68H0.91C0.41125 7.68 0 8.09125 0 8.59V9.65C0 10.1487 0.41125 10.56 0.91 10.56H0.96V11.52C0.96 11.59 0.9675 11.5812 0.97 11.59C0.9725 11.5987 0.96875 11.6037 0.97 11.61C0.97375 11.6225 0.97625 11.6337 0.98 11.65C0.98875 11.6812 1.005 11.7287 1.02 11.78C1.05 11.8825 1.08875 12.0212 1.14 12.19C1.24125 12.5275 1.385 12.9775 1.52 13.42C1.79125 14.3062 2.06 15.18 2.06 15.18C2.06375 15.2037 2.07125 15.2275 2.08 15.25C2.16625 15.405 2.255 15.5625 2.38 15.71C2.505 15.8575 2.70625 16 2.95 16H13.05C13.2975 16 13.5262 15.8787 13.66 15.72C13.7937 15.5612 13.8587 15.3812 13.93 15.21C13.9337 15.2 13.9375 15.19 13.94 15.18C13.94 15.18 14.2087 14.3062 14.48 13.42C14.615 12.9775 14.7587 12.5275 14.86 12.19C14.9112 12.0212 14.95 11.8825 14.98 11.78C14.995 11.7287 15.0112 11.6812 15.02 11.65C15.0237 11.6337 15.0262 11.6225 15.03 11.61C15.0312 11.6037 15.0275 11.5987 15.03 11.59C15.0325 11.5812 15.04 11.59 15.04 11.52V10.56H15.09C15.5887 10.56 16 10.1487 16 9.65V8.59C16 8.09125 15.5887 7.68 15.09 7.68H14.08V6.98C14.08 6.25875 13.7412 5.025 13.33 3.89C13.125 3.3225 12.905 2.785 12.68 2.38C12.65 2.32625 12.62 2.28 12.59 2.23C12.8887 2.1775 13.12 1.9125 13.12 1.6V0.64C13.12 0.29 12.83 0 12.48 0H9.28ZM9.28 0.64H12.48V1.6H9.28V0.64ZM9.95 2.24H11.79C11.7987 2.245 11.825 2.26125 11.86 2.3C11.93 2.3775 12.0212 2.5225 12.12 2.7C12.3175 3.055 12.5325 3.55375 12.73 4.1C13.125 5.1925 13.44 6.48625 13.44 6.98V7.68H12.8C12.7962 7.67625 12.7937 7.67375 12.79 7.67L8.63 5.32C8.82625 4.60875 9.0925 3.835 9.36 3.23C9.5075 2.89625 9.665 2.61125 9.79 2.43C9.8525 2.34 9.90625 2.27875 9.94 2.25C9.94875 2.2425 9.94625 2.2425 9.95 2.24ZM4.68 5.05C5.3125 5.05 5.8875 5.27 6.34 5.64L4.18 7.68H2.05C2.13125 6.10125 3.27125 5.05 4.68 5.05ZM7.5 5.42L11.5 7.68H5.11L7.5 5.42ZM0.91 8.32H15.09C15.2412 8.32 15.36 8.43875 15.36 8.59V9.65C15.36 9.80125 15.2412 9.92 15.09 9.92H1.3C1.29375 9.92 1.28625 9.92 1.28 9.92H0.91C0.75875 9.92 0.64 9.80125 0.64 9.65V8.59C0.64 8.43875 0.75875 8.32 0.91 8.32ZM1.6 10.56H3.84V14.4C3.84 14.5762 3.98375 14.72 4.16 14.72H5.12C5.29625 14.72 5.44 14.5762 5.44 14.4V10.56H6.08V14.4C6.08 14.5762 6.22375 14.72 6.4 14.72H7.36C7.53625 14.72 7.68 14.5762 7.68 14.4V10.56H8.32V14.4C8.32 14.5762 8.46375 14.72 8.64 14.72H9.6C9.77625 14.72 9.92 14.5762 9.92 14.4V10.56H10.56V14.4C10.56 14.5762 10.7037 14.72 10.88 14.72H11.84C12.0162 14.72 12.16 14.5762 12.16 14.4V10.56H14.4V11.48C14.3925 11.5062 14.385 11.55 14.37 11.6C14.3412 11.7 14.2912 11.8412 14.24 12.01C14.1387 12.3462 14.005 12.7875 13.87 13.23C13.6037 14.1 13.3487 14.9412 13.34 14.97L13.33 15C13.2687 15.1412 13.2112 15.2512 13.17 15.3C13.125 15.3537 13.1275 15.36 13.05 15.36H2.95C2.92625 15.36 2.92875 15.36 2.87 15.29C2.81625 15.2262 2.73875 15.1012 2.66 14.96C2.64875 14.9225 2.395 14.0962 2.13 13.23C1.995 12.7875 1.86125 12.3462 1.76 12.01C1.70875 11.8412 1.65875 11.7 1.63 11.6C1.615 11.55 1.6075 11.5062 1.6 11.48V10.56ZM4.48 10.56H4.8V14.08H4.48V10.56ZM6.72 10.56H7.04V14.08H6.72V10.56ZM8.96 10.56H9.28V14.08H8.96V10.56ZM11.2 10.56H11.52V14.08H11.2V10.56Z" fill="white"/>
</g>
<defs>
<clipPath id="clip0_118_412">
<rect width="16" height="16" fill="white"/>
</clipPath>
</defs>
</svg>
