<svg width="19" height="19" viewBox="0 0 19 19" fill="none" xmlns="http://www.w3.org/2000/svg">
<path d="M1.78125 2.375V5.13269L3.12994 5.74384L4.21191 16.625H13.5994L14.7881 4.75H16.0823L16.6273 10.7408L17.8102 10.6342L17.1677 3.5625H14.9064H7.8985L6.11725 2.375H1.78125ZM2.96875 3.5625H5.75775L7.539 4.75H7.71875H13.5948L12.5256 15.4375H5.28809L4.34296 5.9375H5.34375V4.75H3.81531L2.96875 4.36731V3.5625ZM6.53125 7.71875V8.90625H11.2812V7.71875H6.53125ZM7.71875 10.0938V11.2812H10.0938V10.0938H7.71875ZM6.53125 12.4688V13.6562H11.2812V12.4688H6.53125Z" fill="white"/>
</svg>
