<svg width="20" height="20" viewBox="0 0 20 20" fill="none" xmlns="http://www.w3.org/2000/svg">
<path d="M6.05143 1.66663L5.87077 2.25419C5.2709 4.19558 5 5.84798 5 7.49996C5 9.96677 6.80983 12.0232 9.16667 12.4235V16.6666H7.5V18.3333H12.5V16.6666H10.8333V12.4235C13.1902 12.0232 15 9.96677 15 7.49996C15 6.03352 14.6876 4.20473 14.1341 2.27047L13.9616 1.66663H6.05143ZM7.36491 3.33329H12.6335C12.7796 3.90284 12.9033 4.4595 13.0127 4.99996H6.96126C7.07246 4.46321 7.20356 3.91392 7.36491 3.33329ZM6.70736 6.66663H13.2845C13.3153 6.96566 13.3333 7.24746 13.3333 7.49996C13.3333 9.35027 11.8503 10.8333 10 10.8333C8.14969 10.8333 6.66667 9.35027 6.66667 7.49996C6.66667 7.22593 6.68381 6.94719 6.70736 6.66663Z" fill="white"/>
</svg>
