<svg width="18" height="18" viewBox="0 0 18 18" fill="none" xmlns="http://www.w3.org/2000/svg">
<path d="M6.42244 0C5.58432 0 5.02604 0.0928127 4.66604 0.194063C4.48604 0.243281 4.35525 0.295313 4.26385 0.338906C4.17385 0.3825 4.10354 0.433125 4.10354 0.433125L3.9826 0.523125L3.96291 0.675C3.96291 0.675 3.6001 3.55359 3.6001 5.4C3.6001 6.51094 4.14432 7.17328 4.63088 7.57406C4.87557 7.77516 5.10197 7.92563 5.23979 8.04797C5.3776 8.17031 5.4001 8.21953 5.4001 8.28C5.4001 8.61891 5.3101 9.62156 5.2201 10.7339C5.1301 11.8463 5.03869 13.0922 5.0401 14.04C5.0401 15.7528 5.15963 16.6753 5.4015 17.2505C5.52385 17.5373 5.6926 17.7469 5.90072 17.865C6.10744 17.9845 6.31838 18 6.4801 18C6.64041 18 6.85275 17.9859 7.05947 17.8664C7.2676 17.7483 7.43775 17.5373 7.55869 17.2505C7.80057 16.6767 7.9215 15.7514 7.9201 14.04C7.9201 13.0936 7.8301 11.8463 7.7401 10.7339C7.64869 9.62156 7.5601 8.62031 7.5601 8.28C7.5601 8.21813 7.58119 8.17313 7.7176 8.05359C7.85541 7.93406 8.08322 7.785 8.3265 7.58531C8.81588 7.18734 9.3601 6.52359 9.3601 5.4C9.3601 4.14422 8.99869 0.683438 8.99869 0.683438L8.979 0.504844L8.82572 0.412031C8.82572 0.412031 8.61338 0.289688 8.22947 0.19125C7.84557 0.0928127 7.26057 0 6.42244 0ZM11.1615 0C11.0659 0 10.9745 0.0379688 10.9056 0.105469C10.8381 0.172969 10.8001 0.264375 10.8001 0.36V4.32C10.8001 4.57313 10.8353 7.55859 10.8353 8.33484C10.8367 8.66672 10.7382 10.0378 10.6384 11.4567C10.5399 12.8756 10.4401 14.3677 10.4401 15.12C10.4401 16.2098 10.4724 16.8441 10.6117 17.2898C10.682 17.512 10.7931 17.7061 10.9688 17.8298C11.1446 17.9536 11.3457 17.9831 11.5201 17.9831C11.5201 17.9845 11.5201 17.9845 11.5201 17.9831C11.9195 17.9831 12.4299 17.7314 12.766 17.0817C13.1021 16.4306 13.3201 15.397 13.3201 13.68C13.3201 12.7139 13.1274 11.9644 12.9432 11.378C12.759 10.7902 12.6001 10.3627 12.6001 10.08C12.6001 9.57656 13.0065 8.84813 13.4678 8.00578C13.9304 7.16344 14.4254 6.18891 14.4268 5.06813C14.4268 5.06672 14.4268 5.06672 14.4268 5.06672C14.4268 4.43953 14.327 3.48609 13.8854 2.52703C13.4438 1.56797 12.6465 0.604688 11.3021 0.0295313C11.2571 0.00984377 11.2093 0 11.1615 0ZM6.42244 0.72C6.57432 0.72 6.70791 0.725625 6.8401 0.73125V4.32C6.83869 4.44938 6.90619 4.57031 7.01869 4.63641C7.13119 4.70109 7.269 4.70109 7.3815 4.63641C7.494 4.57031 7.5615 4.44938 7.5601 4.32V0.795938C7.75416 0.825469 7.92432 0.856406 8.05088 0.88875C8.24775 0.939375 8.24635 0.950625 8.29838 0.974531C8.32932 1.27828 8.6401 4.3425 8.6401 5.4C8.6401 6.31125 8.28432 6.69234 7.87228 7.02703C7.66697 7.19578 7.44479 7.33641 7.24369 7.51219C7.0426 7.68797 6.8401 7.94672 6.8401 8.28C6.8401 8.72859 6.9315 9.68344 7.0215 10.793C7.1115 11.9011 7.2001 13.14 7.2001 14.04C7.2015 15.7148 7.05525 16.5909 6.89635 16.9706C6.81619 17.1605 6.74869 17.2153 6.70229 17.242C6.65588 17.2688 6.59541 17.28 6.4815 17.28H6.4801C6.36619 17.28 6.30572 17.2688 6.25932 17.2406C6.2115 17.2139 6.14541 17.1591 6.06525 16.9706C5.90635 16.5909 5.7601 15.7148 5.7601 14.04C5.75869 13.1386 5.84729 11.9011 5.93869 10.793C6.02869 9.68484 6.1201 8.72859 6.1201 8.28C6.1201 7.94531 5.919 7.68797 5.71932 7.50938C5.51822 7.33219 5.29604 7.18875 5.08932 7.01859C4.67729 6.67828 4.3201 6.29578 4.3201 5.4C4.3201 3.75188 4.61963 1.26422 4.65619 0.959063C4.70963 0.936563 4.75744 0.915469 4.8601 0.885938C4.99088 0.849375 5.17229 0.812813 5.4001 0.781875V4.32C5.39869 4.44938 5.46619 4.57031 5.57869 4.63641C5.69119 4.70109 5.829 4.70109 5.9415 4.63641C6.054 4.57031 6.1215 4.44938 6.1201 4.32V0.728438C6.21994 0.725625 6.31135 0.72 6.42244 0.72ZM11.5201 1.02938C12.3385 1.52438 12.9165 2.14594 13.2301 2.82797C13.6126 3.65766 13.7068 4.51828 13.7068 5.06813C13.7054 5.97234 13.2892 6.83578 12.8363 7.65984C12.3849 8.48391 11.8801 9.24891 11.8801 10.08C11.8801 10.5834 12.0812 11.0363 12.257 11.5931C12.4313 12.15 12.6001 12.8081 12.6001 13.68C12.6001 15.3338 12.3737 16.2717 12.1262 16.7513C11.8787 17.2294 11.6706 17.2631 11.5201 17.2631C11.4217 17.2631 11.3963 17.2491 11.3851 17.242C11.3738 17.235 11.3401 17.2069 11.2993 17.0733C11.2149 16.8075 11.1601 16.1902 11.1601 15.12C11.1601 14.4323 11.2585 12.9234 11.357 11.5073C11.4554 10.0898 11.5567 8.78766 11.5553 8.33344C11.5553 7.5375 11.5201 4.50844 11.5201 4.32V1.02938Z" fill="white"/>
</svg>
